<svg width="24" height="24" viewBox="0 0 24 24" fill="none" xmlns="http://www.w3.org/2000/svg">
<path fill-rule="evenodd" clip-rule="evenodd" d="M15.5547 10.149C15.4284 10.1578 15.2842 10.1578 15.144 10.1577L15.0823 10.1577C14.4979 10.1577 14.0103 10.1578 13.6174 10.1144C13.2053 10.069 12.8253 9.9699 12.4914 9.72127C12.3209 9.59427 12.1697 9.44327 12.0425 9.27298C11.7935 8.9396 11.6943 8.56011 11.6488 8.14863C11.6054 7.75627 11.6054 7.26938 11.6054 6.68579L11.6054 6.62423C11.6054 6.48209 11.6053 6.33583 11.6145 6.20833C11.5041 6.20163 11.3421 6.20006 11.073 6.20006C10.0007 6.20006 9.23911 6.20071 8.64717 6.25751C8.06434 6.31343 7.70902 6.41942 7.4318 6.59134C7.09165 6.80228 6.80481 7.08871 6.59357 7.42837C6.42141 7.70518 6.31526 8.06 6.25926 8.64199C6.20237 9.23308 6.20173 9.99358 6.20173 11.0644V15.4218C6.20173 15.5859 6.20186 15.6495 6.204 15.7006C6.26054 17.0513 7.34414 18.1333 8.69672 18.1898C8.74791 18.1919 8.81158 18.1921 8.97593 18.1921C9.30777 18.1921 9.57679 18.4607 9.57679 18.7921C9.57679 19.1234 9.30777 19.3921 8.97593 19.3921H8.95978C8.81697 19.3921 8.72616 19.3921 8.64653 19.3887C6.66968 19.3062 5.08596 17.7248 5.00332 15.7508C4.99999 15.6713 5 15.5806 5 15.4381V11.0331C4.99999 10.0006 4.99999 9.1824 5.06304 8.52721C5.1276 7.85632 5.26259 7.29389 5.57269 6.79528C5.88143 6.29886 6.30066 5.88022 6.7978 5.57193C7.29713 5.26227 7.86037 5.12748 8.53223 5.06301C9.18837 5.00005 10.0077 5.00005 11.0417 5.00006L11.1415 5.00003C11.5371 4.99976 11.8489 4.99955 12.147 5.08445C12.3094 5.1307 12.4659 5.19543 12.6134 5.27737C12.8843 5.4278 13.1046 5.64811 13.3842 5.92765L15.7244 8.26446C15.7755 8.31533 15.8251 8.36484 15.8733 8.41336C15.9843 8.52412 16.0984 8.63824 16.1853 8.74287C16.3638 8.94592 16.5067 9.14693 16.6028 9.3785C16.7715 9.78526 16.7711 10.2276 16.7706 10.7865L16.7705 13.3959C16.7705 13.7272 16.5015 13.9959 16.1696 13.9959C15.8378 13.9959 15.5688 13.7272 15.5688 13.3959V10.8831C15.5688 10.5262 15.566 10.303 15.5547 10.149ZM14.7184 8.95719L12.8077 7.04918C12.8093 7.46423 12.816 7.77082 12.8432 8.0169C12.8772 8.32395 12.9369 8.46333 13.0058 8.55556C13.0636 8.63297 13.1323 8.7016 13.2099 8.75933C13.3022 8.82812 13.4418 8.88776 13.7493 8.92167C13.9957 8.94885 14.3028 8.95555 14.7184 8.95719Z" fill="black"/>
<path d="M18.5548 18.2312C18.5548 18.156 18.548 18.0876 18.5345 18.026C18.521 17.9643 18.492 17.9075 18.4477 17.8554C18.4052 17.8034 18.3425 17.7514 18.2595 17.6993C18.1784 17.6473 18.0723 17.5934 17.9411 17.5375C17.7848 17.472 17.6333 17.4026 17.4866 17.3294C17.34 17.2542 17.2078 17.1675 17.09 17.0692C16.9723 16.9709 16.8787 16.8553 16.8093 16.7223C16.7417 16.5875 16.7079 16.4294 16.7079 16.2483C16.7079 16.071 16.7398 15.9101 16.8035 15.7656C16.8691 15.6211 16.9617 15.4977 17.0814 15.3956C17.201 15.2915 17.3409 15.2116 17.5011 15.1557C17.6632 15.0998 17.8436 15.0719 18.0424 15.0719C18.3126 15.0719 18.5461 15.1277 18.7429 15.2395C18.9417 15.3513 19.0951 15.5045 19.2032 15.6991C19.2645 15.8077 19.3088 15.9253 19.3359 16.0519C19.3644 16.1846 19.3786 16.2509 19.3305 16.3103C19.2824 16.3697 19.2041 16.3697 19.0477 16.3697H18.8434C18.7158 16.3697 18.6521 16.3697 18.6111 16.3415C18.57 16.3133 18.537 16.2271 18.4708 16.0546C18.438 15.9621 18.3849 15.8899 18.3116 15.8378C18.2383 15.7858 18.1437 15.7598 18.0279 15.7598C17.9199 15.7598 17.8301 15.782 17.7587 15.8263C17.6892 15.8687 17.6371 15.9275 17.6024 16.0026C17.5696 16.0758 17.5532 16.1587 17.5532 16.2512C17.5532 16.3206 17.5696 16.3832 17.6024 16.4391C17.6371 16.493 17.6844 16.5422 17.7442 16.5865C17.8041 16.6289 17.8745 16.6703 17.9556 16.7108C18.0385 16.7512 18.1292 16.7908 18.2277 16.8293C18.4187 16.9044 18.5876 16.9873 18.7342 17.0779C18.8809 17.1665 19.0034 17.2667 19.1018 17.3785C19.2003 17.4883 19.2746 17.6126 19.3247 17.7514C19.3749 17.8901 19.4 18.0481 19.4 18.2254C19.4 18.4008 19.3691 18.5607 19.3074 18.7052C19.2475 18.8478 19.1597 18.9712 19.044 19.0752C18.9282 19.1774 18.7883 19.2564 18.6242 19.3122C18.4621 19.3681 18.2807 19.3961 18.08 19.3961C17.8851 19.3961 17.7008 19.3691 17.5271 19.3151C17.3535 19.2593 17.2 19.1754 17.0669 19.0637C16.9357 18.95 16.8324 18.8064 16.7572 18.633C16.7176 18.5408 16.6884 18.4399 16.6697 18.3301C16.6463 18.1935 16.6346 18.1252 16.6826 18.0683C16.7306 18.0115 16.8087 18.0115 16.9647 18.0115H17.1719C17.3073 18.0115 17.3749 18.0115 17.4181 18.0448C17.4614 18.0781 17.4834 18.1616 17.5275 18.3287C17.5283 18.3319 17.5292 18.335 17.53 18.3381C17.5551 18.4268 17.5937 18.4981 17.6458 18.552C17.6979 18.6041 17.7616 18.6436 17.8369 18.6706C17.9141 18.6956 18.0019 18.7081 18.1003 18.7081C18.2122 18.7081 18.301 18.6869 18.3666 18.6445C18.4341 18.6021 18.4824 18.5453 18.5113 18.474C18.5403 18.4027 18.5548 18.3218 18.5548 18.2312Z" fill="black"/>
<path d="M10.9375 15.1305C11.0401 15.1305 11.0914 15.1305 11.1315 15.1569C11.1716 15.1833 11.1918 15.2304 11.2322 15.3245L11.4573 15.8499C11.586 16.15 11.6503 16.3001 11.757 16.2991C11.8637 16.2982 11.9254 16.147 12.0487 15.8447L12.2588 15.3297C12.2982 15.2332 12.3179 15.1849 12.3585 15.1577C12.399 15.1304 12.4512 15.1305 12.5556 15.1305H12.7754C13.0054 15.1305 13.1204 15.1305 13.1674 15.2056C13.2145 15.2808 13.1642 15.384 13.0635 15.5905L12.3263 17.1027C12.2927 17.1715 12.276 17.2059 12.276 17.2428C12.276 17.2796 12.2928 17.314 12.3263 17.3828L13.0839 18.9359C13.1846 19.1425 13.235 19.2457 13.1879 19.3209C13.1408 19.3961 13.0258 19.3961 12.7958 19.3961H12.5362C12.4326 19.3961 12.3808 19.3961 12.3405 19.3692C12.3001 19.3423 12.2802 19.2946 12.2404 19.1991L12.011 18.6493C11.885 18.3472 11.8221 18.1962 11.7152 18.1962C11.6084 18.1962 11.5454 18.3472 11.4194 18.6493L11.1901 19.1991C11.1502 19.2946 11.1303 19.3423 11.09 19.3692C11.0496 19.3961 10.9978 19.3961 10.8942 19.3961H10.6571C10.4263 19.3961 10.3109 19.3961 10.2639 19.3207C10.2168 19.2453 10.2677 19.1418 10.3695 18.935L11.1407 17.3672C11.175 17.2975 11.1922 17.2626 11.1921 17.2252C11.192 17.1878 11.1746 17.1531 11.1399 17.0835L10.3968 15.5931C10.2934 15.3857 10.2417 15.282 10.2887 15.2062C10.3356 15.1305 10.4516 15.1305 10.6837 15.1305H10.9375Z" fill="black"/>
<path d="M16.1849 19.0761V19.0071C16.1849 18.8562 16.1849 18.7808 16.138 18.734C16.0911 18.6871 16.0155 18.6871 15.8645 18.6871H14.674V15.4504C14.674 15.2996 14.674 15.2242 14.627 15.1773C14.5801 15.1305 14.5046 15.1305 14.3535 15.1305H14.1348C13.9837 15.1305 13.9082 15.1305 13.8612 15.1773C13.8143 15.2242 13.8143 15.2996 13.8143 15.4504V19.0761C13.8143 19.2269 13.8143 19.3023 13.8612 19.3492C13.9082 19.3961 13.9837 19.3961 14.1348 19.3961H15.8645C16.0155 19.3961 16.0911 19.3961 16.138 19.3492C16.1849 19.3023 16.1849 19.2269 16.1849 19.0761Z" fill="black"/>
</svg>
