<svg width="26" height="26" viewBox="0 0 26 26" fill="none" xmlns="http://www.w3.org/2000/svg">
<path d="M9.2085 16.7917C8.12516 16.7917 5.9585 17.875 5.9585 20.5833" stroke="black" stroke-width="1.2" stroke-linecap="round"/>
<path d="M16.7915 16.7917C17.8748 16.7917 20.0415 17.875 20.0415 20.5833" stroke="black" stroke-width="1.2" stroke-linecap="round"/>
<path d="M15.1668 16.7917L13.1971 19.1553M12.4585 20.0417L13.1971 19.1553M10.8335 16.7917L13.1971 19.1553" stroke="black" stroke-width="1.2" stroke-linecap="round"/>
<path d="M9.20849 5.95833C7.58349 7.04166 5.95848 12.7833 10.2918 14.0833" stroke="black" stroke-width="1.2" stroke-linecap="round"/>
<path d="M16.7915 5.95833C18.4165 7.04166 20.0415 12.7833 15.7082 14.0833" stroke="black" stroke-width="1.2" stroke-linecap="round"/>
<path d="M9.88459 10.2917C9.79702 10.6349 9.75 10.9986 9.75 11.375C9.75 13.4691 11.2051 15.7083 13 15.7083C14.7949 15.7083 16.25 13.4691 16.25 11.375C16.25 10.9986 16.203 10.6349 16.1154 10.2917" stroke="black" stroke-width="1.2" stroke-linecap="round"/>
<path d="M14.0832 8.125C13.607 8.60128 12.2931 9.91511 9.40527 10.2254" stroke="black" stroke-width="1.2" stroke-linecap="round"/>
<path d="M13.5415 9.20833C14.0832 9.74999 14.6248 10.2917 16.2498 10.2917" stroke="black" stroke-width="1.2" stroke-linecap="round"/>
<path d="M17.1832 4.28477C17.266 4.14129 17.2171 3.95731 17.0708 3.87949C15.8189 3.21334 14.421 2.86385 12.9998 2.86385C11.5786 2.86385 10.1808 3.21334 8.92886 3.87949C8.7826 3.95731 8.73366 4.14129 8.8165 4.28477L10.3346 6.91415C10.4174 7.05764 10.6005 7.10593 10.7487 7.03178C11.4464 6.68268 12.217 6.49999 12.9998 6.49999C13.7827 6.49999 14.5533 6.68268 15.251 7.03178C15.3991 7.10593 15.5823 7.05764 15.6651 6.91415L17.1832 4.28477Z" stroke="black" stroke-width="1.2"/>
<path d="M8.9375 18.6875V20.3125M8.125 19.5H9.75" stroke="black" stroke-width="1.2" stroke-linecap="round"/>
</svg>
