<svg width="25" height="24" viewBox="0 0 25 24" fill="none" xmlns="http://www.w3.org/2000/svg">
<path d="M16.166 3.638C16.0327 3.1663 15.7489 2.75105 15.358 2.45538C14.967 2.15972 14.4902 1.99982 14 2H11C9.97 2 9.1 2.693 8.834 3.638M16.166 3.638C16.221 3.832 16.25 4.038 16.25 4.25C16.25 4.44891 16.171 4.63968 16.0303 4.78033C15.8897 4.92098 15.6989 5 15.5 5H9.5C9.30109 5 9.11032 4.92098 8.96967 4.78033C8.82902 4.63968 8.75 4.44891 8.75 4.25C8.75 4.038 8.78 3.832 8.834 3.638M16.166 3.638C16.812 3.687 17.454 3.748 18.093 3.822C19.193 3.95 20 4.899 20 6.007V19.25C20 19.8467 19.7629 20.419 19.341 20.841C18.919 21.2629 18.3467 21.5 17.75 21.5H7.25C6.65326 21.5 6.08097 21.2629 5.65901 20.841C5.23705 20.419 5 19.8467 5 19.25V6.007C5 4.899 5.806 3.95 6.907 3.822C7.54804 3.74778 8.1905 3.68643 8.834 3.638" stroke="black" stroke-width="1.5" stroke-linecap="round" stroke-linejoin="round"/>
</svg>
