<svg width="89" height="100" viewBox="0 0 89 100" fill="none" xmlns="http://www.w3.org/2000/svg">
<path fill-rule="evenodd" clip-rule="evenodd" d="M19.4688 37.5C19.4688 30.0408 22.1061 22.8871 26.8003 17.6126C31.4946 12.3382 37.8614 9.375 44.5001 9.375C51.1388 9.375 57.5056 12.3382 62.1999 17.6126C66.8941 22.8871 69.5313 30.0408 69.5313 37.5V40.625C69.5313 49.4708 72.498 57.5292 77.3856 63.625C77.6901 64.0041 77.9072 64.4613 78.018 64.9565C78.1288 65.4517 78.13 65.9699 78.0213 66.4658C77.9126 66.9616 77.6974 67.42 77.3946 67.8007C77.0918 68.1815 76.7105 68.4731 76.2842 68.65C70.5586 71.025 64.5659 72.775 58.3693 73.8292C58.5088 75.9714 58.2537 78.123 57.6199 80.1495C56.9862 82.176 55.9873 84.0339 54.6858 85.6072C53.3843 87.1805 51.808 88.4354 50.0555 89.2935C48.303 90.1516 46.4118 90.5945 44.5001 90.5945C42.5884 90.5945 40.6972 90.1516 38.9447 89.2935C37.1922 88.4354 35.6159 87.1805 34.3144 85.6072C33.0129 84.0339 32.014 82.176 31.3803 80.1495C30.7465 78.123 30.4914 75.9714 30.6309 73.8292C24.5183 72.7884 18.5158 71.0516 12.716 68.6458C12.29 68.4691 11.909 68.178 11.6063 67.7977C11.3036 67.4175 11.0883 66.9597 10.9793 66.4644C10.8703 65.9692 10.8708 65.4515 10.9809 64.9565C11.091 64.4615 11.3073 64.0044 11.6109 63.625C16.6795 57.3195 19.4803 49.1216 19.4688 40.625V37.5ZM36.1638 74.5833C36.1163 75.8466 36.2968 77.1076 36.6944 78.2905C37.0919 79.4734 37.6983 80.5537 38.4771 81.4664C39.2559 82.3792 40.1909 83.1054 41.226 83.6016C42.2611 84.0978 43.3748 84.3535 44.5001 84.3535C45.6254 84.3535 46.7391 84.0978 47.7742 83.6016C48.8093 83.1054 49.7443 82.3792 50.5231 81.4664C51.3019 80.5537 51.9083 79.4734 52.3058 78.2905C52.7034 77.1076 52.8839 75.8466 52.8364 74.5833C47.2901 75.1447 41.7101 75.1447 36.1638 74.5833Z" fill="#9FA19E" fill-opacity="0.45"/>
</svg>
