<svg width="22" height="16" viewBox="0 0 22 16" fill="none" xmlns="http://www.w3.org/2000/svg">
<path d="M0.662481 7.94748C0.57914 7.72297 0.57914 7.476 0.662481 7.25148C1.47418 5.28334 2.852 3.60052 4.62125 2.41638C6.39051 1.23224 8.47152 0.600098 10.6005 0.600098C12.7294 0.600098 14.8105 1.23224 16.5797 2.41638C18.349 3.60052 19.7268 5.28334 20.5385 7.25148C20.6218 7.476 20.6218 7.72297 20.5385 7.94748C19.7268 9.91563 18.349 11.5984 16.5797 12.7826C14.8105 13.9667 12.7294 14.5989 10.6005 14.5989C8.47152 14.5989 6.39051 13.9667 4.62125 12.7826C2.852 11.5984 1.47418 9.91563 0.662481 7.94748Z" stroke="#007BFF" stroke-opacity="0.7" stroke-width="1.2" stroke-linecap="round" stroke-linejoin="round"/>
<path d="M10.6005 10.5995C12.2573 10.5995 13.6005 9.25634 13.6005 7.59948C13.6005 5.94263 12.2573 4.59948 10.6005 4.59948C8.94363 4.59948 7.60048 5.94263 7.60048 7.59948C7.60048 9.25634 8.94363 10.5995 10.6005 10.5995Z" stroke="#007BFF" stroke-opacity="0.7" stroke-width="1.2" stroke-linecap="round" stroke-linejoin="round"/>
</svg>
