<svg width="89" height="101" viewBox="0 0 89 101" fill="none" xmlns="http://www.w3.org/2000/svg">
<path d="M2.09636 6.66504C0.95289 6.66504 0 7.58534 0 8.77407C0 9.96279 0.95289 10.8831 2.09636 10.8831C3.23983 10.8831 4.19272 9.96279 4.19272 8.77407C4.19272 7.58534 3.23983 6.66504 2.09636 6.66504Z" fill="#007BFF"/>
<path d="M19.058 6.66504C17.9145 6.66504 16.9615 7.58534 16.9615 8.77407C16.9615 9.96278 17.9145 10.8447 19.058 10.8447C20.2014 10.8447 21.1543 9.92444 21.1543 8.73572C21.1543 7.54699 20.2014 6.66504 19.058 6.66504Z" fill="#007BFF"/>
<path d="M36.0191 6.66504C34.8757 6.66504 33.9227 7.58534 33.9227 8.77407C33.9227 9.96279 34.8757 10.8831 36.0191 10.8831C37.1625 10.8831 38.1154 9.96279 38.1154 8.77407C38.1154 7.58534 37.1625 6.66504 36.0191 6.66504Z" fill="#007BFF"/>
<path d="M52.9806 6.66504C51.8372 6.66504 50.8843 7.58534 50.8843 8.77407C50.8843 9.96279 51.8372 10.8831 52.9806 10.8831C54.1242 10.8831 55.077 9.96279 55.077 8.77407C55.077 7.58534 54.1242 6.66504 52.9806 6.66504Z" fill="#007BFF"/>
<path d="M69.9423 6.66504C68.7988 6.66504 67.8459 7.58534 67.8459 8.77407C67.8459 9.96279 68.7988 10.8831 69.9423 10.8831C71.0857 10.8831 72.0386 9.96279 72.0386 8.77407C72.0386 7.58534 71.0857 6.66504 69.9423 6.66504Z" fill="#007BFF"/>
<path d="M86.9038 10.8447C88.0473 10.8447 89 9.92444 89 8.73572C89 7.54699 88.0473 6.66504 86.9038 6.66504C85.7604 6.66504 84.8075 7.58534 84.8075 8.77407C84.8075 9.96278 85.7604 10.8447 86.9038 10.8447Z" fill="#007BFF"/>
<path d="M2.09636 23.4609C0.95289 23.4609 0 24.3812 0 25.5316C0 26.6819 0.95289 27.6406 2.09636 27.6406C3.23983 27.6406 4.19272 26.7203 4.19272 25.5316C4.15461 24.3812 3.23983 23.4609 2.09636 23.4609Z" fill="#007BFF"/>
<path d="M19.058 23.4609C17.9145 23.4609 16.9615 24.3812 16.9615 25.5699C16.9615 26.7203 17.9145 27.6789 19.058 27.6789C20.2014 27.6789 21.1543 26.7586 21.1543 25.5699C21.1162 24.3812 20.2014 23.4609 19.058 23.4609Z" fill="#007BFF"/>
<path d="M36.0191 23.4609C34.8757 23.4609 33.9227 24.3812 33.9227 25.5699C33.9227 26.7203 34.8757 27.6789 36.0191 27.6789C37.1625 27.6789 38.1154 26.7586 38.1154 25.5699C38.1154 24.3812 37.1625 23.4609 36.0191 23.4609Z" fill="#007BFF"/>
<path d="M52.9806 23.4609C51.8372 23.4609 50.8843 24.3812 50.8843 25.5699C50.8843 26.7203 51.8372 27.6789 52.9806 27.6789C54.1242 27.6789 55.077 26.7586 55.077 25.5699C55.077 24.3812 54.1242 23.4609 52.9806 23.4609Z" fill="#007BFF"/>
<path d="M69.9423 23.4609C68.7988 23.4609 67.8459 24.3812 67.8459 25.5699C67.8459 26.7203 68.7988 27.6789 69.9423 27.6789C71.0857 27.6789 72.0386 26.7586 72.0386 25.5699C72.0386 24.3812 71.0857 23.4609 69.9423 23.4609Z" fill="#007BFF"/>
<path d="M86.9038 23.4609C85.7604 23.4609 84.8075 24.3812 84.8075 25.5699C84.8075 26.7203 85.7604 27.6789 86.9038 27.6789C88.0473 27.6789 89 26.7586 89 25.5699C89 24.3812 88.0473 23.4609 86.9038 23.4609Z" fill="#007BFF"/>
<path d="M2.09636 40.2178C0.95289 40.2178 0 41.1764 0 42.3268C0 43.4772 0.95289 44.4358 2.09636 44.4358C3.23983 44.4358 4.15461 43.4772 4.15461 42.3268C4.15461 41.1764 3.23983 40.2178 2.09636 40.2178Z" fill="#007BFF"/>
<path d="M19.058 40.2178C17.9145 40.2178 16.9615 41.1764 16.9615 42.3268C16.9615 43.4772 17.9145 44.4358 19.058 44.4358C20.2014 44.4358 21.1162 43.4772 21.1162 42.3268C21.1162 41.1764 20.2014 40.2178 19.058 40.2178Z" fill="#007BFF"/>
<path d="M36.0191 40.2178C34.8757 40.2178 33.9227 41.1764 33.9227 42.3268C33.9227 43.4772 34.8757 44.4358 36.0191 44.4358C37.1625 44.4358 38.1154 43.4772 38.1154 42.3268C38.1154 41.1764 37.1625 40.2178 36.0191 40.2178Z" fill="#007BFF"/>
<path d="M52.9806 40.2178C51.8372 40.2178 50.8843 41.1381 50.8843 42.3268C50.8843 43.4772 51.8372 44.4358 52.9806 44.4358C54.1242 44.4358 55.077 43.5155 55.077 42.3268C55.077 41.1764 54.1242 40.2178 52.9806 40.2178Z" fill="#007BFF"/>
<path d="M69.9423 40.2178C68.7988 40.2178 67.8459 41.1381 67.8459 42.3268C67.8459 43.4772 68.7988 44.4358 69.9423 44.4358C71.0857 44.4358 72.0386 43.5155 72.0386 42.3268C72.0386 41.1764 71.0857 40.2178 69.9423 40.2178Z" fill="#007BFF"/>
<path d="M86.9038 40.2178C85.7604 40.2178 84.8075 41.1381 84.8075 42.3268C84.8075 43.4772 85.7604 44.4358 86.9038 44.4358C88.0473 44.4358 89 43.5155 89 42.3268C89 41.1764 88.0473 40.2178 86.9038 40.2178Z" fill="#007BFF"/>
<path d="M2.09636 57.0132C0.95289 57.0132 0 57.9335 0 59.1222C0 60.2726 0.95289 61.2313 2.09636 61.2313C3.23983 61.2313 4.19272 60.3109 4.19272 59.1222C4.15461 57.9718 3.23983 57.0132 2.09636 57.0132Z" fill="#007BFF"/>
<path d="M19.058 57.0132C17.9145 57.0132 16.9615 57.9335 16.9615 59.1222C16.9615 60.2726 17.9145 61.2313 19.058 61.2313C20.2014 61.2313 21.1543 60.3109 21.1543 59.1222C21.1162 57.9718 20.2014 57.0132 19.058 57.0132Z" fill="#007BFF"/>
<path d="M36.0191 57.0132C34.8757 57.0132 33.9227 57.9335 33.9227 59.1222C33.9227 60.2726 34.8757 61.2313 36.0191 61.2313C37.1625 61.2313 38.1154 60.3109 38.1154 59.1222C38.1154 57.9718 37.1625 57.0132 36.0191 57.0132Z" fill="#007BFF"/>
<path d="M52.9806 57.0132C51.8372 57.0132 50.8843 57.9335 50.8843 59.1222C50.8843 60.2726 51.8372 61.2313 52.9806 61.2313C54.1242 61.2313 55.077 60.3109 55.077 59.1222C55.077 57.9718 54.1242 57.0132 52.9806 57.0132Z" fill="#007BFF"/>
<path d="M69.9423 57.0132C68.7988 57.0132 67.8459 57.9335 67.8459 59.1222C67.8459 60.2726 68.7988 61.2313 69.9423 61.2313C71.0857 61.2313 72.0386 60.3109 72.0386 59.1222C72.0386 57.9718 71.0857 57.0132 69.9423 57.0132Z" fill="#007BFF"/>
<path d="M86.9038 57.0132C85.7604 57.0132 84.8075 57.9335 84.8075 59.1222C84.8075 60.2726 85.7604 61.2313 86.9038 61.2313C88.0473 61.2313 89 60.3109 89 59.1222C89 57.9718 88.0473 57.0132 86.9038 57.0132Z" fill="#007BFF"/>
<path d="M2.09636 73.8086C0.95289 73.8086 0 74.7288 0 75.9175C0 77.0679 0.95289 78.0266 2.09636 78.0266C3.23983 78.0266 4.19272 77.1063 4.19272 75.9175C4.15461 74.7288 3.23983 73.8086 2.09636 73.8086Z" fill="#007BFF"/>
<path d="M19.058 73.8086C17.9145 73.8086 16.9615 74.7288 16.9615 75.9175C16.9615 77.0679 17.9145 78.0266 19.058 78.0266C20.2014 78.0266 21.1543 77.1063 21.1543 75.9175C21.1162 74.7288 20.2014 73.8086 19.058 73.8086Z" fill="#007BFF"/>
<path d="M36.0191 73.8086C34.8757 73.8086 33.9227 74.7288 33.9227 75.9175C33.9227 77.0679 34.8757 78.0266 36.0191 78.0266C37.1625 78.0266 38.1154 77.1063 38.1154 75.9175C38.1154 74.7288 37.1625 73.8086 36.0191 73.8086Z" fill="#007BFF"/>
<path d="M52.9806 73.8086C51.8372 73.8086 50.8843 74.7288 50.8843 75.9175C50.8843 77.0679 51.8372 78.0266 52.9806 78.0266C54.1242 78.0266 55.077 77.1063 55.077 75.9175C55.077 74.7288 54.1242 73.8086 52.9806 73.8086Z" fill="#007BFF"/>
<path d="M69.9423 73.8086C68.7988 73.8086 67.8459 74.7288 67.8459 75.9175C67.8459 77.0679 68.7988 78.0266 69.9423 78.0266C71.0857 78.0266 72.0386 77.1063 72.0386 75.9175C72.0386 74.7288 71.0857 73.8086 69.9423 73.8086Z" fill="#007BFF"/>
<path d="M86.9038 73.8086C85.7604 73.8086 84.8075 74.7288 84.8075 75.9175C84.8075 77.0679 85.7604 78.0266 86.9038 78.0266C88.0473 78.0266 89 77.1063 89 75.9175C89 74.7288 88.0473 73.8086 86.9038 73.8086Z" fill="#007BFF"/>
<path d="M2.09636 90.5659C0.95289 90.5659 0 91.4861 0 92.6749C0 93.8253 0.95289 94.7839 2.09636 94.7839C3.23983 94.7839 4.19272 93.8636 4.19272 92.6749C4.15461 91.5246 3.23983 90.5659 2.09636 90.5659Z" fill="#007BFF"/>
<path d="M19.058 90.5659C17.9145 90.5659 16.9615 91.4861 16.9615 92.6749C16.9615 93.8253 17.9145 94.7839 19.058 94.7839C20.2014 94.7839 21.1543 93.8636 21.1543 92.6749C21.1162 91.5246 20.2014 90.5659 19.058 90.5659Z" fill="#007BFF"/>
<path d="M36.0191 90.5659C34.8757 90.5659 33.9227 91.4861 33.9227 92.6749C33.9227 93.8253 34.8757 94.7839 36.0191 94.7839C37.1625 94.7839 38.1154 93.8636 38.1154 92.6749C38.1154 91.5246 37.1625 90.5659 36.0191 90.5659Z" fill="#007BFF"/>
<path d="M52.9806 90.5659C51.8372 90.5659 50.8843 91.4861 50.8843 92.6749C50.8843 93.8253 51.8372 94.7839 52.9806 94.7839C54.1242 94.7839 55.077 93.8636 55.077 92.6749C55.077 91.5246 54.1242 90.5659 52.9806 90.5659Z" fill="#007BFF"/>
<path d="M69.9423 90.5659C68.7988 90.5659 67.8459 91.4861 67.8459 92.6749C67.8459 93.8253 68.7988 94.7839 69.9423 94.7839C71.0857 94.7839 72.0386 93.8636 72.0386 92.6749C72.0386 91.5246 71.0857 90.5659 69.9423 90.5659Z" fill="#007BFF"/>
<path d="M86.9038 90.5659C85.7604 90.5659 84.8075 91.4861 84.8075 92.6749C84.8075 93.8253 85.7604 94.7839 86.9038 94.7839C88.0473 94.7839 89 93.8636 89 92.6749C89 91.5246 88.0473 90.5659 86.9038 90.5659Z" fill="#007BFF"/>
</svg>
