<svg width="20" height="20" viewBox="0 0 20 20" fill="none" xmlns="http://www.w3.org/2000/svg">
<path fill-rule="evenodd" clip-rule="evenodd" d="M14.0244 0C10.7246 0 8.04877 0.919074 8.04877 2.05382V3.87614C8.36826 4.53008 10.6249 5.35714 14.0244 5.35714C17.4239 5.35714 19.6795 4.5281 19.999 3.87614V2.05382C20 0.919074 17.3251 0 14.0244 0Z" fill="#007BFF" fill-opacity="0.7"/>
<path fill-rule="evenodd" clip-rule="evenodd" d="M1.75145 16.1992L1.66679 16.028V15.8242C1.30698 16.0884 1.09937 16.3822 1.09937 16.6968V18.5191C1.41886 19.1731 3.67546 20.0001 7.07498 20.0001C10.4745 20.0001 12.7301 19.1711 13.0506 18.5191V17.5733C11.8452 17.9414 10.2558 18.157 8.49505 18.157C5.08848 18.1531 2.31485 17.3507 1.75145 16.1992Z" fill="#007BFF" fill-opacity="0.7"/>
<path fill-rule="evenodd" clip-rule="evenodd" d="M2.51392 15.3048V15.836C2.83341 16.49 5.09001 17.317 8.48953 17.317C11.889 17.317 14.1446 16.488 14.4651 15.836V14.0137C14.4611 13.8801 14.4228 13.7486 14.3543 13.6328V13.9177L14.2696 14.0899C13.7052 15.2405 10.9366 16.0438 7.52803 16.0438C5.53851 16.0438 3.76366 15.7658 2.51392 15.3048Z" fill="#007BFF" fill-opacity="0.7"/>
<path fill-rule="evenodd" clip-rule="evenodd" d="M11.9502 10.8927V9.0714C11.9502 7.93764 9.27434 7.01758 5.9746 7.01758C2.67486 7.01758 0 7.93665 0 9.0714V10.8937C0.318484 11.5477 2.57609 12.3747 5.97561 12.3747C9.37512 12.3747 11.6317 11.5447 11.9502 10.8927Z" fill="#007BFF" fill-opacity="0.7"/>
<path fill-rule="evenodd" clip-rule="evenodd" d="M12.8022 10.9375V11.0849L12.7175 11.2561C12.1531 12.4066 9.38454 13.21 5.97596 13.21C4.28376 13.21 2.74677 13.0111 1.56152 12.6698V13.7284C1.88102 14.3823 4.13762 15.2094 7.53713 15.2094C10.9366 15.2094 13.1922 14.3803 13.5127 13.7284V11.9051C13.5127 11.5548 13.2537 11.2244 12.8022 10.9375V10.9375Z" fill="#007BFF" fill-opacity="0.7"/>
<path fill-rule="evenodd" clip-rule="evenodd" d="M8.0498 5.00586V6.30582C9.85488 6.52347 11.4836 7.03692 12.2808 7.87487C12.821 7.92434 13.4046 7.95204 14.0254 7.95204C17.4239 7.95204 19.6805 7.12299 20 6.47104V5.00586C18.7533 5.78841 16.3788 6.19304 14.0244 6.19304C11.67 6.19304 9.29653 5.78841 8.0498 5.00586Z" fill="#007BFF" fill-opacity="0.7"/>
<path fill-rule="evenodd" clip-rule="evenodd" d="M12.7659 8.74818C12.789 8.85601 12.8011 8.96583 12.8011 9.07564V9.99076C13.1116 10.1392 13.4018 10.3261 13.6629 10.5468H14.0237C17.4222 10.5468 19.6788 9.71771 19.9983 9.06575V7.60156C18.7516 8.3851 16.378 8.78973 14.0237 8.78973C13.6044 8.78775 13.1801 8.77489 12.7659 8.74818Z" fill="#007BFF" fill-opacity="0.7"/>
<path fill-rule="evenodd" clip-rule="evenodd" d="M14.363 11.9059V12.4411C14.6291 12.6211 14.8589 12.8497 15.0393 13.1128C17.8674 12.9684 19.7138 12.2403 20 11.6595V10.1934C18.7956 10.9492 16.541 11.3518 14.2683 11.3776C14.3298 11.5467 14.362 11.7258 14.363 11.9059Z" fill="#007BFF" fill-opacity="0.7"/>
<path fill-rule="evenodd" clip-rule="evenodd" d="M15.3193 14.0138V15.6907C17.9861 15.5136 19.7227 14.8181 19.9988 14.2522V12.791C18.9799 13.4301 17.2101 13.8169 15.3123 13.9376C15.3153 13.9614 15.3193 13.9911 15.3193 14.0138Z" fill="#007BFF" fill-opacity="0.7"/>
<path fill-rule="evenodd" clip-rule="evenodd" d="M13.9004 17.2566V18.4903H14.0244C17.3241 18.4903 19.999 17.5712 19.999 16.4365V15.3809C18.9226 16.0566 16.9996 16.4503 14.9838 16.5453C14.6734 16.849 14.3045 17.0904 13.9004 17.2566H13.9004Z" fill="#007BFF" fill-opacity="0.7"/>
</svg>
