<svg
          width="35"
          height="35"
          viewBox="0 0 35 35"
          fill="none"
          xmlns="http://www.w3.org/2000/svg"
        >
          <path
            fill-rule="evenodd"
            clip-rule="evenodd"
            d="M17.3599 2.5C17.8569 2.5 18.2598 2.87702 18.2598 3.3421H17.3599H16.4599C16.4599 2.87702 16.8628 2.5 17.3599 2.5ZM18.2598 11.8702V3.3421H17.3599H16.4599V11.8702C15.9609 11.9959 15.5328 12.2277 15.1726 12.5407C14.638 13.0051 14.2958 13.6107 14.0494 14.1871C13.8283 14.7042 13.6583 15.2643 13.5079 15.7596C13.4907 15.8161 13.4739 15.8717 13.4572 15.9264C13.285 16.4901 13.1367 16.9412 12.9551 17.2811C12.7328 17.6971 12.913 18.2029 13.3575 18.4109C13.8021 18.6189 14.3427 18.4503 14.565 18.0343C14.8333 17.5321 15.0225 16.9306 15.1878 16.3891C15.2045 16.3343 15.2211 16.28 15.2375 16.226C15.3924 15.7168 15.5364 15.2435 15.7206 14.8126C15.9241 14.3364 16.1444 13.9946 16.3973 13.7749C16.6239 13.578 16.9112 13.4472 17.3599 13.4472C17.8086 13.4472 18.0958 13.578 18.3224 13.7749C18.5754 13.9946 18.7956 14.3364 18.9992 14.8126C19.1833 15.2435 19.3273 15.7168 19.4822 16.226C19.4986 16.28 19.5152 16.3343 19.5319 16.3891C19.6973 16.9306 19.8864 17.5321 20.1548 18.0343C20.377 18.4503 20.9176 18.6189 21.3622 18.4109C21.8067 18.2029 21.9869 17.6971 21.7647 17.2811C21.583 16.9412 21.4347 16.4901 21.2626 15.9264C21.2459 15.8717 21.229 15.8161 21.2118 15.7596C21.0614 15.2643 20.8914 14.7042 20.6703 14.1871C20.4239 13.6107 20.0817 13.0051 19.5472 12.5407C19.1869 12.2277 18.7588 11.9959 18.2598 11.8702Z"
            fill="#007BFF"
            fill-opacity="0.7"
          />
          <path
            d="M11.8455 10.704C9.14034 9.93943 6.54441 11.4033 4.76764 13.7736C2.96419 16.1795 1.79613 19.7315 1.86256 23.8095C1.91439 26.9915 4.89208 29.5004 8.41353 29.5C10.8866 29.4997 13.5553 29.0823 14.867 27.1278C15.5645 26.0884 15.859 25.1782 15.8599 24.2568C15.8606 23.368 15.5842 22.5279 15.2846 21.6738L15.1846 21.3903C14.5968 19.7285 13.85 17.6168 13.9827 13.989C14.025 12.8306 13.5634 11.1895 11.8455 10.704Z"
            fill="#007BFF"
            fill-opacity="0.7"
          />
          <path
            d="M22.8748 10.704C25.5799 9.93943 28.1758 11.4033 29.9526 13.7736C31.756 16.1795 32.9241 19.7315 32.8577 23.8095C32.8058 26.9915 29.8281 29.5004 26.3067 29.5C23.8336 29.4997 21.1649 29.0823 19.8533 27.1278C19.1557 26.0884 18.8612 25.1782 18.8604 24.2568C18.8596 23.368 19.136 22.5279 19.4356 21.6738L19.5356 21.3903C20.1234 19.7285 20.8703 17.6168 20.7375 13.989C20.6952 12.8306 21.1568 11.1895 22.8748 10.704Z"
            fill="#007BFF"
            fill-opacity="0.7"
          />
        </svg>