<svg
          width="35"
          height="35"
          viewBox="0 0 35 35"
          fill="none"
          xmlns="http://www.w3.org/2000/svg"
        >
          <path
            fill-rule="evenodd"
            clip-rule="evenodd"
            d="M17.3978 2.917C16.1398 2.91691 15.3961 2.91686 14.7615 3.0431C12.1582 3.56092 10.1232 5.59594 9.60535 8.19922C9.47911 8.83389 9.47916 9.57757 9.47925 10.8355L9.47926 19.6878C9.47926 23.0657 12.0314 25.8476 15.3126 26.2103V26.2503C15.3126 27.4585 16.292 28.4378 17.5001 28.4378C18.7082 28.4378 19.6876 27.4585 19.6876 26.2503V26.2103C22.9688 25.8476 25.5209 23.0657 25.5209 19.6878L25.5209 10.8355C25.521 9.5776 25.5211 8.83388 25.3948 8.19922C24.877 5.59594 22.842 3.56092 20.2387 3.0431C19.604 2.91686 18.8604 2.91691 17.6024 2.917H17.3978ZM17.5001 26.9795C17.0974 26.9795 16.7709 26.653 16.7709 26.2503H18.2293C18.2293 26.653 17.9028 26.9795 17.5001 26.9795ZM24.0626 13.8545H10.9376V10.9378C10.9376 9.54764 10.9411 8.95903 11.0357 8.48373C11.4384 6.45895 13.0212 4.87616 15.046 4.47341C15.5213 4.37887 16.1099 4.37533 17.5001 4.37533C18.8903 4.37533 19.4789 4.37887 19.9542 4.47341C21.979 4.87616 23.5618 6.45895 23.9645 8.48373C24.0591 8.95903 24.0626 9.54764 24.0626 10.9378V13.8545Z"
            fill="#007BFF"
            fill-opacity="0.7"
          />
          <path
            fill-rule="evenodd"
            clip-rule="evenodd"
            d="M17.4999 26.9795C17.9026 26.9795 18.2291 27.306 18.2291 27.7087C18.2291 28.7393 18.4037 29.5069 18.6799 29.9901C18.9334 30.4338 19.2557 30.6253 19.6874 30.6253C20.0901 30.6253 20.4166 30.9518 20.4166 31.3545C20.4166 31.7572 20.0901 32.0837 19.6874 32.0837C18.6608 32.0837 17.8893 31.546 17.4137 30.7137C16.9607 29.9209 16.7708 28.8655 16.7708 27.7087C16.7708 27.306 17.0972 26.9795 17.4999 26.9795Z"
            fill="#007BFF"
          />
        </svg>