<svg
          width="35"
          height="35"
          viewBox="0 0 35 35"
          fill="none"
          xmlns="http://www.w3.org/2000/svg"
        >
          <path
            d="M12.3958 5.10449C11.4272 5.10449 10.6056 5.73408 10.3179 6.60636C8.1951 6.90728 6.5625 8.7319 6.5625 10.9378V17.5003C6.5625 21.6961 9.78414 25.1394 13.8887 25.4915C14.2625 29.2124 17.6088 31.1703 20.7598 31.263C22.4499 31.3127 24.1802 30.8428 25.5025 29.7667C26.8439 28.6753 27.7083 27.0046 27.7083 24.792V18.9587H26.25V24.792C26.25 26.5898 25.565 27.8358 24.5821 28.6356C23.5802 29.4509 22.2116 29.8468 20.8027 29.8053C18.1662 29.7278 15.717 28.1759 15.3577 25.4843C19.4242 25.0947 22.6042 21.6689 22.6042 17.5003V10.9378C22.6042 9.01153 21.3592 7.37601 19.6301 6.79193C19.4039 5.82478 18.5361 5.10449 17.5 5.10449C16.2919 5.10449 15.3125 6.08387 15.3125 7.29199C15.3125 8.50012 16.2919 9.47949 17.5 9.47949C18.3496 9.47949 19.0861 8.99511 19.4484 8.28744C20.4504 8.74913 21.1458 9.76226 21.1458 10.9378V17.5003C21.1458 21.1247 18.2077 24.0628 14.5833 24.0628C10.959 24.0628 8.02083 21.1247 8.02083 17.5003V10.9378C8.02083 9.5267 9.02296 8.34963 10.3544 8.07946C10.6705 8.89849 11.4653 9.47949 12.3958 9.47949C13.604 9.47949 14.5833 8.50012 14.5833 7.29199C14.5833 6.08387 13.604 5.10449 12.3958 5.10449Z"
            fill="#007BFF"
            fill-opacity="0.7"
          />
          <path
            fill-rule="evenodd"
            clip-rule="evenodd"
            d="M24.0625 16.7712C24.0625 15.1603 25.3683 13.8545 26.9792 13.8545C28.59 13.8545 29.8958 15.1603 29.8958 16.7712C29.8958 18.382 28.59 19.6878 26.9792 19.6878C25.3683 19.6878 24.0625 18.382 24.0625 16.7712ZM26.9792 17.5003C27.3819 17.5003 27.7083 17.1739 27.7083 16.7712C27.7083 16.3685 27.3819 16.042 26.9792 16.042C26.5765 16.042 26.25 16.3685 26.25 16.7712C26.25 17.1739 26.5765 17.5003 26.9792 17.5003Z"
            fill="#007BFF"
            fill-opacity="0.7"
          />
        </svg>