<svg
          width="35"
          height="35"
          viewBox="0 0 35 35"
          fill="none"
          xmlns="http://www.w3.org/2000/svg"
        >
          <path
            fill-rule="evenodd"
            clip-rule="evenodd"
            d="M21.1459 21.875C21.1461 22.0219 21.1019 22.1702 21.0101 22.2988L17.3642 27.403C17.1302 27.7307 16.6748 27.8066 16.3471 27.5725C16.0194 27.3385 15.9435 26.8831 16.1775 26.5554L16.73 25.7819L13.3386 22.3906C13.1963 22.2482 13.1251 22.0616 13.1251 21.875H12.3959C11.4748 21.875 10.2246 22.3137 9.20603 23.1285C8.16441 23.9618 7.29175 25.2498 7.29175 26.9792C7.29175 27.7608 7.38785 28.5224 7.71653 29.2083C8.05364 29.9119 8.60594 30.4752 9.40955 30.9038C10.9533 31.7271 13.4906 32.083 17.4954 32.0833L17.5001 32.0833C21.5076 32.0833 24.0463 31.7275 25.5906 30.9038C26.3942 30.4752 26.9465 29.9119 27.2836 29.2083C27.6123 28.5224 27.7084 27.7608 27.7084 26.9792C27.7084 25.2498 26.8358 23.9618 25.7941 23.1285C24.7756 22.3137 23.5254 21.875 22.6043 21.875H21.1459ZM12.7605 25.1562C12.7605 24.7535 12.434 24.4271 12.0313 24.4271C11.6286 24.4271 11.3022 24.7535 11.3022 25.1562V25.5208H10.9376C10.5349 25.5208 10.2084 25.8473 10.2084 26.25C10.2084 26.6527 10.5349 26.9792 10.9376 26.9792H11.3022V27.3437C11.3022 27.7465 11.6286 28.0729 12.0313 28.0729C12.434 28.0729 12.7605 27.7465 12.7605 27.3437V26.9792H13.1251C13.5278 26.9792 13.8542 26.6527 13.8542 26.25C13.8542 25.8473 13.5278 25.5208 13.1251 25.5208H12.7605V25.1562Z"
            fill="#007BFF"
            fill-opacity="0.7"
          />
          <path
            fill-rule="evenodd"
            clip-rule="evenodd"
            d="M23.0086 7.41407C23.7229 7.89028 24.3411 8.79327 24.7868 9.80497C25.2422 10.8391 25.562 12.0863 25.6114 13.3517C25.6608 14.6158 25.4413 15.9393 24.7717 17.0842C24.2338 18.0039 23.4242 18.775 22.3022 19.2983C22.1434 19.5907 21.9686 19.8708 21.7794 20.1351C20.8281 21.4639 19.3454 22.6041 17.5 22.6041C15.6545 22.6041 14.1718 21.4639 13.2206 20.1351C13.0313 19.8708 12.8565 19.5907 12.6977 19.2983C11.5757 18.775 10.7662 18.0039 10.2283 17.0842C9.55862 15.9393 9.33912 14.6158 9.3885 13.3517C9.43793 12.0863 9.75767 10.8391 10.2132 9.80497C10.6588 8.79327 11.277 7.89028 11.9913 7.41407C12.9446 6.77853 13.5451 8.70669 13.8953 9.27831C14.0161 9.48757 14.2831 9.55788 14.4997 9.45083C15.4309 8.99065 16.4574 8.74994 17.5 8.74994C18.5425 8.74994 19.569 8.99065 20.5002 9.45083C20.7168 9.55788 20.9838 9.48757 21.1046 9.27831C21.4546 8.70698 22.0552 6.77845 23.0086 7.41407ZM19.4739 10.4219C19.7586 10.7066 19.7586 11.1683 19.4739 11.4531C19.3297 11.5972 19.1342 11.7918 18.8789 12.0137C19.1874 12.3181 19.4561 12.5586 19.8313 12.7462C20.2527 12.9569 20.8639 13.125 21.875 13.125C22.2777 13.125 22.6041 13.4514 22.6041 13.8541C22.6041 13.9824 22.571 14.103 22.5128 14.2077C22.5728 14.566 22.6041 14.9354 22.6041 15.3124C22.6041 16.8788 22.0641 18.4847 21.1865 19.7107C20.315 20.9281 19.0268 21.8749 17.5 21.8749C15.9732 21.8749 14.685 20.9281 13.8135 19.7107C12.9358 18.4847 12.3958 16.8788 12.3958 15.3124C12.3958 15.0243 12.4141 14.7406 12.4495 14.4629C12.178 14.3805 11.9682 14.1427 11.936 13.8428C11.893 13.4424 12.1827 13.0829 12.5831 13.0399C16.2154 12.6496 17.8406 11.0241 18.4312 10.4333L18.4427 10.4219C18.7274 10.1371 19.1891 10.1371 19.4739 10.4219Z"
            fill="#007BFF"
            fill-opacity="0.7"
          />
          <path
            fill-rule="evenodd"
            clip-rule="evenodd"
            d="M11.709 4.56187C13.4915 3.61998 15.4792 3.12598 17.5 3.12598C19.5208 3.12598 21.5085 3.61998 23.2911 4.56187C23.8862 4.8763 24.0645 5.61012 23.7461 6.16165L21.7362 9.6429C21.4084 10.2106 20.7115 10.3686 20.1772 10.1045C19.3463 9.6939 18.4303 9.47912 17.5 9.47912C16.5697 9.47912 15.6538 9.6939 14.8228 10.1045C14.2886 10.3686 13.5916 10.2106 13.2639 9.6429L11.254 6.16165C10.9355 5.61012 11.1139 4.8763 11.709 4.56187ZM12.6749 5.70614L14.3988 8.69191C15.3703 8.25077 16.4274 8.02078 17.5 8.02078C18.5726 8.02078 19.6298 8.25077 20.6013 8.69191L22.3251 5.70614C20.8266 4.96952 19.1762 4.58431 17.5 4.58431C15.8238 4.58431 14.1734 4.96952 12.6749 5.70614Z"
            fill="#007BFF"
            fill-opacity="0.7"
          />
        </svg>