<svg
          width="35"
          height="35"
          viewBox="0 0 35 35"
          fill="none"
          xmlns="http://www.w3.org/2000/svg"
        >
          <path
            fill-rule="evenodd"
            clip-rule="evenodd"
            d="M25.3246 7.08274C23.4592 5.45936 20.6309 5.65558 19.0075 7.52102L14.2224 13.0196C15.0932 14.4973 15.8847 15.5587 16.7862 16.4041C18.1704 15.2668 19.9434 14.5833 21.875 14.5833C22.7504 14.5833 23.5942 14.7238 24.3844 14.9839L25.7629 13.3998C27.3863 11.5344 27.19 8.70612 25.3246 7.08274ZM6.51389 19.6561L17.9074 6.56367C20.0595 4.09066 23.8089 3.83053 26.2819 5.98264C28.755 8.13475 29.0151 11.8841 26.863 14.3572L24.814 16.7116L24.3321 16.5169C23.5741 16.2106 22.7452 16.0416 21.875 16.0416C20.0627 16.0416 18.423 16.7754 17.2347 17.9638C16.0463 19.1521 15.3125 20.7918 15.3125 22.6041C15.3125 23.7976 15.6304 24.9145 16.1857 25.8773L16.4455 26.3279L16.1041 26.7203C14.9982 27.9911 13.5458 28.9913 11.9549 29.3389C10.3338 29.6931 8.61741 29.3555 7.09492 28.0306C4.62192 25.8785 4.36178 22.1291 6.51389 19.6561Z"
            fill="#007BFF"
            fill-opacity="0.7"
          />
          <path
            fill-rule="evenodd"
            clip-rule="evenodd"
            d="M21.8751 16.0413C18.2507 16.0413 15.3126 18.9795 15.3126 22.6038C15.3126 26.2282 18.2507 29.1663 21.8751 29.1663C25.4994 29.1663 28.4376 26.2282 28.4376 22.6038C28.4376 18.9795 25.4994 16.0413 21.8751 16.0413ZM13.8542 22.6038C13.8542 18.1741 17.4453 14.583 21.8751 14.583C26.3049 14.583 29.8959 18.1741 29.8959 22.6038C29.8959 27.0336 26.3049 30.6247 21.8751 30.6247C17.4453 30.6247 13.8542 27.0336 13.8542 22.6038Z"
            fill="#007BFF"
            fill-opacity="0.7"
          />
          <path
            fill-rule="evenodd"
            clip-rule="evenodd"
            d="M16.2405 24.1135C16.1363 23.7245 16.3671 23.3247 16.7561 23.2205L26.6166 20.5783C27.0056 20.4741 27.4054 20.705 27.5096 21.0939C27.6138 21.4829 27.383 21.8828 26.994 21.987L17.1335 24.6291C16.7445 24.7333 16.3447 24.5025 16.2405 24.1135Z"
            fill="#007BFF"
            fill-opacity="0.7"
          />
        </svg>