<svg width="40" height="40" viewBox="0 0 40 40" fill="none" xmlns="http://www.w3.org/2000/svg">
<g clip-path="url(#clip0_2979_30970)">
<path fill-rule="evenodd" clip-rule="evenodd" d="M37.2973 0H2.7027C1.21622 0 0 1.21622 0 2.7027V37.2973C0 38.7838 1.21622 40 2.7027 40H37.2973C38.7838 40 40 38.7838 40 37.2973V2.7027C40 1.21622 38.7838 0 37.2973 0Z" fill="#A50064"/>
<path d="M27.6759 18.7834C30.8515 18.7834 33.4191 16.2158 33.4191 13.0401C33.4191 9.86444 30.8515 7.29688 27.6759 7.29688C24.5002 7.29688 21.9326 9.86444 21.9326 13.0401C21.9326 16.2158 24.5002 18.7834 27.6759 18.7834ZM27.6759 10.5942C29.0272 10.5942 30.1218 11.6888 30.1218 13.0401C30.1218 14.3915 29.0272 15.4861 27.6759 15.4861C26.3245 15.4861 25.2299 14.3915 25.2299 13.0401C25.2299 11.6888 26.3245 10.5942 27.6759 10.5942Z" fill="white"/>
<path d="M27.6759 21.2695C24.5002 21.2695 21.9326 23.8371 21.9326 27.0128C21.9326 30.1884 24.5002 32.756 27.6759 32.756C30.8515 32.756 33.4191 30.1884 33.4191 27.0128C33.4191 23.8371 30.8515 21.2695 27.6759 21.2695ZM27.6759 29.4587C26.3245 29.4587 25.2299 28.3641 25.2299 27.0128C25.2299 25.6614 26.3245 24.5668 27.6759 24.5668C29.0272 24.5668 30.1218 25.6614 30.1218 27.0128C30.1218 28.3641 29.0272 29.4587 27.6759 29.4587Z" fill="white"/>
<path d="M15.973 21.2695C15 21.2695 14.1081 21.5939 13.3919 22.1344C12.6757 21.5939 11.7703 21.2695 10.8108 21.2695C8.43243 21.2695 6.5 23.202 6.5 25.5803V32.7695H9.7973V25.5398C9.7973 24.9993 10.2297 24.5668 10.7703 24.5668C11.3108 24.5668 11.7432 24.9993 11.7432 25.5398V32.756H15.0405V25.5398C15.0405 24.9993 15.473 24.5668 16.0135 24.5668C16.5541 24.5668 16.9865 24.9993 16.9865 25.5398V32.756H20.2703V25.5668C20.2703 23.202 18.3514 21.2695 15.973 21.2695Z" fill="white"/>
<path d="M15.9731 7.29688C15.0001 7.29688 14.1082 7.6212 13.392 8.16174C12.6758 7.6212 11.7704 7.29688 10.8109 7.29688C8.419 7.29688 6.48657 9.22931 6.48657 11.6077V18.7834H9.78387V11.5671C9.78387 11.0266 10.2163 10.5942 10.7568 10.5942C11.2974 10.5942 11.7298 11.0266 11.7298 11.5671V18.7834H15.0271V11.5671C15.0271 11.0266 15.4595 10.5942 16.0001 10.5942C16.5406 10.5942 16.9731 11.0266 16.9731 11.5671V18.7834H20.2704V11.6077C20.2704 9.22931 18.3514 7.29688 15.9731 7.29688Z" fill="white"/>
</g>
<defs>
<clipPath id="clip0_2979_30970">
<rect width="40" height="40" fill="white"/>
</clipPath>
</defs>
</svg>
