<svg width="70" height="71" viewBox="0 0 70 71" fill="none" xmlns="http://www.w3.org/2000/svg">
<path d="M40 45.5H50V68H55V43C55 41.6183 53.8818 40.5 52.5 40.5H37.5C36.1183 40.5 35 41.6183 35 43V68H40V45.5Z" fill="#007BFF"/>
<path d="M62.5 20.5H50V25.5H60V65.5H10V25.5H20V20.5H7.5C6.11825 20.5 5 21.6183 5 23V68C5 69.3817 6.11825 70.5 7.5 70.5H62.5C63.8817 70.5 65 69.3817 65 68V23C65 21.6183 63.8817 20.5 62.5 20.5Z" fill="#007BFF"/>
<path d="M20 20.5H5V15.5H20V10.5H2.5C1.11825 10.5 0 11.6183 0 13V23C0 24.3818 1.11825 25.5 2.5 25.5H20V20.5Z" fill="#007BFF"/>
<path d="M67.5 10.5H50V15.5H65V20.5H50V25.5H67.5C68.8818 25.5 70 24.3818 70 23V13C70 11.6183 68.8818 10.5 67.5 10.5Z" fill="#007BFF"/>
<path d="M50 35.5H20C18.6183 35.5 17.5 34.3817 17.5 33V3C17.5 1.61825 18.6183 0.5 20 0.5H50C51.3817 0.5 52.5 1.61825 52.5 3V33C52.5 34.3817 51.3817 35.5 50 35.5ZM22.5 30.5H47.5V5.5H22.5V30.5Z" fill="#007BFF"/>
<path d="M40 15.5H37.5V13C37.5 11.6183 36.3818 10.5 35 10.5C33.6182 10.5 32.5 11.6183 32.5 13V15.5H30C28.6183 15.5 27.5 16.6182 27.5 18C27.5 19.3818 28.6183 20.5 30 20.5H32.5V23C32.5 24.3818 33.6182 25.5 35 25.5C36.3818 25.5 37.5 24.3818 37.5 23V20.5H40C41.3818 20.5 42.5 19.3818 42.5 18C42.5 16.6182 41.3818 15.5 40 15.5Z" fill="#007BFF"/>
<path d="M27.5 55.5H17.5C16.1183 55.5 15 54.3818 15 53V48C15 43.8643 18.3643 40.5 22.5 40.5C26.6357 40.5 30 43.8643 30 48V53C30 54.3818 28.8818 55.5 27.5 55.5ZM20 50.5H25V48C25 46.6205 23.8795 45.5 22.5 45.5C21.1205 45.5 20 46.6205 20 48V50.5Z" fill="#007BFF"/>
</svg>
