<svg
          width="35"
          height="35"
          viewBox="0 0 35 35"
          fill="none"
          xmlns="http://www.w3.org/2000/svg"
        >
          <path
            fill-rule="evenodd"
            clip-rule="evenodd"
            d="M10.9548 7.3907C10.8786 7.14922 10.916 6.92189 10.9545 6.77975C11.0025 6.60261 11.0872 6.429 11.1967 6.26605C11.4179 5.93703 11.7668 5.61089 12.2556 5.32492C13.2309 4.75435 14.7968 4.32073 17.2377 4.31199C19.6873 4.30322 21.2689 4.75591 22.2372 5.36311C22.7207 5.66631 23.0635 6.01673 23.2653 6.37644C23.3655 6.55495 23.4386 6.74989 23.4654 6.95203C23.4874 7.11867 23.4852 7.35191 23.3735 7.58802C23.3602 7.6206 23.3425 7.66103 23.3196 7.70818C23.2773 7.79501 23.217 7.90482 23.1335 8.03029C23.0569 8.17795 22.9761 8.34022 22.9006 8.49497C22.8307 8.6383 22.7687 8.76823 22.724 8.86294L22.3238 27.2969C22.2612 30.1777 19.6895 32.5292 16.5893 32.5403C13.5098 32.5514 11.0711 30.2475 11.1333 27.3858L11.5347 8.89451L11.0752 7.70679C11.0473 7.64661 11.0248 7.59223 11.0067 7.54479C10.9877 7.49491 10.9735 7.45257 10.9632 7.41908L10.9548 7.3907ZM13.177 17.7462C14.4689 18.1845 15.5796 18.4416 16.735 18.4458C17.8808 18.4499 19.134 18.2048 20.7009 17.5509L20.8706 9.73065C19.9399 10.1015 18.7053 10.3576 17.0757 10.3635C15.4657 10.3692 14.2556 10.1089 13.3512 9.72364L13.177 17.7462ZM21.5877 7.13114L21.5377 7.22462C21.4428 7.35327 21.2815 7.53287 21.0198 7.72126C20.4464 8.13419 19.3033 8.65077 17.1214 8.65858C14.9561 8.66634 13.866 8.12132 13.3291 7.68305C13.0538 7.45832 12.8992 7.24189 12.8161 7.09573L12.8011 7.06872C12.8699 6.99213 12.993 6.88205 13.2013 6.76017C13.7744 6.42491 14.9556 6.02486 17.1921 6.01685C19.42 6.00888 20.6064 6.4246 21.1807 6.78475C21.3997 6.9221 21.5228 7.04643 21.5877 7.13114Z"
            fill="#007BFF"
            fill-opacity="0.7"
          />
        </svg>