<svg width="18" height="18" viewBox="0 0 18 18" fill="none" xmlns="http://www.w3.org/2000/svg">
<path d="M9 0C13.9703 0.000209728 17.9999 4.02956 18 9C18 13.9705 13.9704 17.9998 9 18C4.02945 18 0 13.9706 0 9C5.15157e-05 4.02943 4.02948 0 9 0ZM8.38672 4.9668L6.38672 4.47363L6.12305 5.52832C6.12305 5.52832 6.85445 5.69543 6.84375 5.70703C7.24504 5.8072 7.31801 6.07144 7.30566 6.28125L6.19238 10.7275C6.1432 10.8485 6.0186 11.0308 5.73828 10.9619C5.73539 10.9722 5.0166 10.7822 5.0166 10.7822L4.52441 11.9141L6.52148 12.416L6.11133 14.0566L7.10156 14.3037L7.50879 12.6797C7.77927 12.7522 8.04189 12.8202 8.29883 12.8838L7.89355 14.5L8.88574 14.7461L9.2959 13.1084C10.9874 13.4269 12.2589 13.2983 12.7939 11.7744C13.0756 10.7157 12.7725 9.8403 11.8828 9.37891C12.5313 9.23035 13.0198 8.80585 13.1504 7.92871C13.33 6.73084 12.4139 6.08713 11.1621 5.65723L11.5684 4.0332L10.5771 3.78711L10.1816 5.36719C9.92134 5.30251 9.65323 5.24182 9.38672 5.18164L9.78516 3.59082L8.79395 3.34375L8.38672 4.9668ZM8.37695 9.31543C9.04977 9.48259 11.2048 9.81454 10.8848 11.0938C10.5777 12.3198 8.50457 11.6569 7.83203 11.4902L8.37695 9.31543ZM9.12012 6.34863C9.68078 6.48822 11.4821 6.74803 11.1914 7.91113C10.9116 9.02582 9.18611 8.45984 8.62598 8.32129L9.12012 6.34863Z" fill="#F7931A"/>
</svg>
