<svg width="40" height="38" viewBox="0 0 40 38" fill="none" xmlns="http://www.w3.org/2000/svg">
<path d="M7.5 5.9375C6.17392 5.9375 4.90215 6.43795 3.96447 7.32874C3.02678 8.21954 2.5 9.42772 2.5 10.6875V11.875H37.5V10.6875C37.5 9.42772 36.9732 8.21954 36.0355 7.32874C35.0979 6.43795 33.8261 5.9375 32.5 5.9375H7.5Z" fill="#1B3C74"/>
<path fill-rule="evenodd" clip-rule="evenodd" d="M37.5 15.4375H2.5V27.3125C2.5 28.5723 3.02678 29.7805 3.96447 30.6713C4.90215 31.5621 6.17392 32.0625 7.5 32.0625H32.5C33.8261 32.0625 35.0979 31.5621 36.0355 30.6713C36.9732 29.7805 37.5 28.5723 37.5 27.3125V15.4375ZM7.5 21.375C7.5 21.0601 7.6317 20.758 7.86612 20.5353C8.10054 20.3126 8.41848 20.1875 8.75 20.1875H18.75C19.0815 20.1875 19.3995 20.3126 19.6339 20.5353C19.8683 20.758 20 21.0601 20 21.375C20 21.6899 19.8683 21.992 19.6339 22.2147C19.3995 22.4374 19.0815 22.5625 18.75 22.5625H8.75C8.41848 22.5625 8.10054 22.4374 7.86612 22.2147C7.6317 21.992 7.5 21.6899 7.5 21.375ZM8.75 24.9375C8.41848 24.9375 8.10054 25.0626 7.86612 25.2853C7.6317 25.508 7.5 25.8101 7.5 26.125C7.5 26.4399 7.6317 26.742 7.86612 26.9647C8.10054 27.1874 8.41848 27.3125 8.75 27.3125H13.75C14.0815 27.3125 14.3995 27.1874 14.6339 26.9647C14.8683 26.742 15 26.4399 15 26.125C15 25.8101 14.8683 25.508 14.6339 25.2853C14.3995 25.0626 14.0815 24.9375 13.75 24.9375H8.75Z" fill="#1B3C74"/>
</svg>
