<svg width="40" height="40" viewBox="0 0 40 40" fill="none" xmlns="http://www.w3.org/2000/svg">
<path fill-rule="evenodd" clip-rule="evenodd" d="M22.4267 14.1652L19.4597 17.1323L19.3124 17.2776L17.6669 18.9251L16.1666 20.4253L16.0213 20.5726L14.6311 21.9608L14.4858 22.1081C14.0695 22.5244 13.608 22.8661 13.1191 23.1371C12.8717 23.2726 12.6183 23.3904 12.3591 23.4905C11.7818 23.7144 11.1751 23.844 10.5644 23.8833C10.1893 23.9088 9.81034 23.899 9.43725 23.8518C8.6302 23.7556 7.84081 23.4984 7.11819 23.0801C6.8099 22.9014 6.49179 22.7149 6.22866 22.4537C6.22866 22.4537 6.22736 22.4537 6.22474 22.4537L0.53411 16.7631C0.439855 16.659 0.355419 16.5471 0.284728 16.4253C0.104073 16.119 0 15.7656 0 15.3866C0 15.3277 0.00196364 15.2668 0.00785456 15.2099C0.0157091 15.1215 0.0294546 15.0371 0.0471274 14.9546L0.0824729 14.8191C0.159055 14.5658 0.284728 14.3262 0.457528 14.1102C0.502692 14.0552 0.551783 14.0022 0.602837 13.9472L0.699056 13.853L6.45252 8.09755H6.45448L9.93994 4.61013C10.7175 3.83253 11.9566 3.79718 12.7715 4.50998L22.4267 14.1652Z" fill="#005AAA"/>
<path fill-rule="evenodd" clip-rule="evenodd" d="M6.16769 22.3991C6.18536 22.4168 6.20303 22.4344 6.22267 22.4521C6.4858 22.7133 6.80391 22.9018 7.11612 23.0805C7.83874 23.4987 8.62813 23.756 9.43518 23.8522C9.80827 23.8973 10.1873 23.9072 10.5623 23.8836C11.173 23.8463 11.7798 23.7147 12.3571 23.4928C12.6163 23.3927 12.8696 23.2749 13.117 23.1394C13.606 22.8684 14.0674 22.5267 14.4837 22.1104L14.629 21.9651L16.0193 20.5749L16.7223 19.8699L18.3678 18.2244L19.3103 17.2799L19.4576 17.1346L25.4349 11.1592L27.8993 8.48866L28.0466 8.34335C28.7986 7.59128 30.02 7.59128 30.7721 8.34335L32.1211 9.69237L32.1643 9.73754C31.5674 9.71005 30.9645 9.92408 30.5129 10.3659L25.9455 14.8587L25.8983 14.9137L17.9495 22.7349L17.9377 22.725L15.01 25.6018L14.8136 25.808C14.5838 26.0318 14.1008 26.4579 13.4567 26.7623C13.1641 26.8997 12.8676 26.9999 12.5731 27.0627C12.3983 27.0981 12.2196 27.1197 12.0449 27.1275H11.9113C11.446 27.1275 10.9904 27.0235 10.5525 26.8232L9.17598 25.4506L8.61438 24.887L6.03809 22.2813L6.1559 22.401L6.16769 22.3991ZM39.4357 19.7266L32.8162 26.4461L26.0181 33.3483C25.8021 33.5663 25.5743 33.7607 25.3348 33.9374C25.3269 33.9453 25.3171 33.9531 25.3073 33.961C25.2739 33.9846 25.2425 34.0081 25.2071 34.0317C25.2032 34.0356 25.1993 34.0376 25.1954 34.0415C24.1703 34.7759 22.9116 35.2059 21.5567 35.2059C19.8817 35.2059 18.3619 34.5501 17.2367 33.4799L17.0816 33.3424L15.9113 32.1741L12.6261 28.887L11.3772 27.6381C11.5559 27.6675 11.7366 27.6793 11.9172 27.6793H12.0684C12.2785 27.6695 12.4867 27.644 12.6929 27.6027C13.0286 27.534 13.3684 27.4181 13.7022 27.2611C14.4209 26.9213 14.9569 26.4501 15.2102 26.2007C15.3104 26.1025 15.385 26.02 15.4164 25.9847L17.9436 23.5027L17.9535 23.5144L26.6406 14.9667L26.6877 14.9117L30.9076 10.7586C31.4751 10.2029 32.3626 10.1303 33.0087 10.574L34.0082 11.5735H34.0101L39.4357 16.9991C39.4828 17.0482 39.5299 17.0973 39.5712 17.1483C40.1858 17.9063 40.1387 19.0256 39.4357 19.7266Z" fill="#ED1C24"/>
<path d="M21.5313 15.0588L20.9736 15.6145L19.9957 14.6307C19.8426 14.4756 19.8445 14.2262 19.9957 14.075C20.1508 13.9218 20.3983 13.9218 20.5534 14.075L21.5293 15.0568L21.5313 15.0588ZM19.8838 16.7063L19.3261 17.26L16.255 14.1653C15.1141 13.0186 13.4489 12.6141 11.9075 13.1128C11.7013 13.1796 11.4794 13.0677 11.4126 12.8615C11.3459 12.6533 11.4598 12.4314 11.666 12.3647C13.4902 11.7736 15.4636 12.2508 16.8127 13.6116L19.8818 16.7063H19.8838ZM16.5908 19.9993L16.0331 20.557L12.9482 17.4485C12.795 17.2954 12.797 17.046 12.9482 16.8909C13.1033 16.7377 13.3527 16.7397 13.5059 16.8928L16.5888 19.9993H16.5908ZM18.2363 18.3538L17.6786 18.9095L14.6016 15.8069C13.8515 15.049 12.6222 15.045 11.8662 15.7951C11.1102 16.5472 11.1044 17.7745 11.8564 18.5305L13.8397 20.5314C13.9929 20.6846 13.9929 20.934 13.8397 21.0891C13.6865 21.2423 13.4372 21.2403 13.282 21.0872L11.2968 19.0862C10.2404 18.02 10.2462 16.2939 11.3125 15.2355C12.3788 14.1791 14.1068 14.1869 15.1612 15.2512L18.2363 18.3518V18.3538ZM13.1328 23.1254C13.1328 23.1254 13.121 23.1313 13.1151 23.1352C12.8736 23.2668 12.6281 23.3827 12.3748 23.4808L9.64537 20.7278C7.937 19.0057 7.69351 16.3077 9.06413 14.3106C9.18784 14.1319 9.4333 14.0868 9.61199 14.2085C9.79264 14.3322 9.83584 14.5777 9.7141 14.7564C8.55751 16.4412 8.76369 18.717 10.205 20.1701L13.1348 23.1235L13.1328 23.1254ZM18.466 12.5316C18.3129 12.6828 18.0615 12.6789 17.9064 12.5257C15.3458 9.94547 11.1633 9.92976 8.58304 12.4884C6.00478 15.049 5.98711 19.2315 8.54769 21.8117L10.5526 23.8343C10.5663 23.848 10.5801 23.8637 10.5879 23.8795C10.5781 23.8795 10.5683 23.8795 10.5585 23.8795C10.1932 23.905 9.82406 23.8952 9.46275 23.852L7.99002 22.3655C5.12311 19.4789 5.14078 14.7957 8.02929 11.9287C10.9178 9.06183 15.5991 9.08147 18.466 11.97L18.4719 11.9759C18.6251 12.129 18.6212 12.3765 18.466 12.5316Z" fill="#009EDB"/>
</svg>
