<svg width="22" height="26" viewBox="0 0 22 26" fill="none" xmlns="http://www.w3.org/2000/svg">
<path d="M3.74301 2.30827C6.58873 -0.0503372 10.8376 -0.613093 14.3366 0.673797C19.3484 2.37034 22.2468 7.98548 20.8568 12.7813C20.2473 14.7758 19.0634 16.5468 17.9278 18.3054C16.893 16.6254 15.4328 15.231 13.6307 14.2834C15.0908 12.8393 16.0774 10.6834 15.0733 8.75513C13.8718 5.70963 9.13629 4.81584 6.89566 7.34824C4.79097 9.30134 5.40046 12.4958 7.34291 14.3372C5.54515 15.1606 4.17272 16.5634 3.33084 18.2641C1.33138 15.9179 -0.269065 13.0296 0.0378696 9.92616C-0.128752 6.99652 1.46292 4.21585 3.74301 2.30827Z" fill="#238C98"/>
<path d="M7.23773 22.8697C7.89106 20.0394 8.30762 17.1677 8.9171 14.3291C9.95191 14.3332 10.9823 14.3332 12.0171 14.3332C12.6529 17.1512 13.109 20.0022 13.7141 22.8284C12.6617 23.7346 11.8242 25.1001 10.4781 25.5594C9.15388 25.0753 8.30762 23.7428 7.23773 22.8697Z" fill="#238C98"/>
</svg>
