<svg width="200" height="200" viewBox="0 0 200 200" fill="none" xmlns="http://www.w3.org/2000/svg">
<g clip-path="url(#clip0_3341_14608)">
<path d="M126.968 44.9795H73.077C71.849 44.981 70.6716 45.4815 69.8032 46.3711C68.9348 47.2608 68.4463 48.4669 68.4448 49.725V172.429L67.8272 172.622L54.6068 176.769C53.9802 176.965 53.3035 176.898 52.7251 176.583C52.1467 176.268 51.7139 175.731 51.5218 175.089L12.1972 43.4957C12.0058 42.8539 12.071 42.1604 12.3785 41.5678C12.686 40.9751 13.2106 40.5318 13.837 40.3352L34.2096 33.9446L93.2705 15.4243L113.643 9.0337C113.953 8.93594 114.279 8.90179 114.602 8.93318C114.925 8.96457 115.238 9.06089 115.525 9.21663C115.812 9.37237 116.065 9.58448 116.272 9.8408C116.478 10.0971 116.633 10.3927 116.728 10.7105L126.78 44.3468L126.968 44.9795Z" fill="#007BFF" fill-opacity="0.24"/>
<path d="M138.728 44.3465L126.613 3.80699C126.412 3.13153 126.082 2.50337 125.644 1.95842C125.205 1.41347 124.666 0.962401 124.057 0.630991C123.448 0.299582 122.781 0.0943234 122.095 0.026953C121.409 -0.0404173 120.716 0.0314207 120.057 0.238355L91.4145 9.22006L32.3567 27.7435L3.71411 36.7283C2.38352 37.1469 1.26941 38.0892 0.616305 39.3484C-0.0367959 40.6077 -0.175524 42.0809 0.230578 43.4448L41.6366 181.992C41.9665 183.093 42.6321 184.057 43.5359 184.742C44.4396 185.427 45.5338 185.797 46.658 185.798C47.1783 185.798 47.6957 185.718 48.1927 185.561L67.8272 179.404L68.4448 179.208V178.547L67.8272 178.74L48.0106 184.957C46.8361 185.323 45.5675 185.198 44.4832 184.608C43.3989 184.018 42.5873 183.011 42.2265 181.809L0.823631 43.2582C0.644854 42.6624 0.582546 42.0364 0.640271 41.4159C0.697997 40.7955 0.874618 40.1928 1.16003 39.6424C1.44544 39.0919 1.83404 38.6046 2.30357 38.2083C2.77309 37.8119 3.31431 37.5143 3.89625 37.3326L32.5389 28.3477L91.5968 9.82749L120.239 0.842625C120.681 0.704625 121.14 0.634261 121.601 0.63382C122.592 0.636099 123.555 0.96321 124.351 1.56724C125.147 2.17127 125.733 3.02049 126.024 3.99049L138.083 44.3465L138.274 44.9792H138.917L138.728 44.3465Z" fill="#9FA19E" fill-opacity="0.2"/>
<path d="M37.8858 40.4385C37.2905 40.438 36.7111 40.2422 36.2325 39.8797C35.7539 39.5172 35.4013 39.0071 35.2264 38.4242L31.2488 25.114C31.1419 24.7565 31.1048 24.3809 31.1396 24.0087C31.1745 23.6365 31.2805 23.2749 31.4518 22.9447C31.623 22.6145 31.8561 22.322 32.1376 22.0841C32.4192 21.8462 32.7438 21.6674 33.0928 21.558L87.4254 4.51716C88.1303 4.29682 88.8916 4.37197 89.5424 4.72611C90.1933 5.08025 90.6803 5.68446 90.8968 6.40611L94.8744 19.7165C95.0894 20.4385 95.0159 21.2185 94.6703 21.8852C94.3246 22.5518 93.7349 23.0508 93.0306 23.2727L38.6977 40.3135C38.4346 40.3962 38.161 40.4383 37.8858 40.4385Z" fill="#007BFF" fill-opacity="0.7"/>
<path d="M58.7222 14.2221C62.1333 14.2221 64.8985 11.3893 64.8985 7.89476C64.8985 4.40024 62.1333 1.56738 58.7222 1.56738C55.3111 1.56738 52.5459 4.40024 52.5459 7.89476C52.5459 11.3893 55.3111 14.2221 58.7222 14.2221Z" fill="#007BFF" fill-opacity="0.7"/>
<path d="M58.7225 11.9016C60.8826 11.9016 62.6336 10.1077 62.6336 7.89487C62.6336 5.68204 60.8826 3.88818 58.7225 3.88818C56.5625 3.88818 54.8115 5.68204 54.8115 7.89487C54.8115 10.1077 56.5625 11.9016 58.7225 11.9016Z" fill="white"/>
<path d="M186.103 184.181H81.7236C81.0276 184.181 80.3604 183.897 79.8683 183.393C79.3762 182.889 79.0994 182.205 79.0986 181.492V53.363C79.0994 52.65 79.3762 51.9665 79.8683 51.4623C80.3604 50.9582 81.0276 50.6746 81.7236 50.6738H186.103C186.799 50.6747 187.466 50.9582 187.958 51.4624C188.45 51.9665 188.727 52.65 188.728 53.363V181.492C188.727 182.205 188.45 182.889 187.958 183.393C187.466 183.897 186.799 184.181 186.103 184.181Z" fill="#007BFF" fill-opacity="0.24"/>
<path d="M138.083 44.3467H73.077C71.6853 44.3487 70.3511 44.916 69.367 45.9242C68.3829 46.9324 67.8291 48.2992 67.8271 49.7249V178.74L68.4448 178.547V49.7249C68.4463 48.4668 68.9348 47.2607 69.8032 46.371C70.6716 45.4814 71.8489 44.9809 73.077 44.9794H138.274L138.083 44.3467ZM194.75 44.3467H73.077C71.6853 44.3487 70.3511 44.916 69.367 45.9242C68.3829 46.9324 67.8291 48.2992 67.8271 49.7249V194.622C67.8291 196.048 68.3829 197.414 69.367 198.423C70.3511 199.431 71.6853 199.998 73.077 200H194.75C196.142 199.998 197.476 199.431 198.46 198.423C199.444 197.414 199.998 196.048 200 194.622V49.7249C199.998 48.2992 199.444 46.9324 198.46 45.9242C197.476 44.916 196.142 44.3487 194.75 44.3467ZM199.382 194.622C199.381 195.88 198.892 197.086 198.024 197.976C197.156 198.865 195.978 199.366 194.75 199.367H73.077C71.8489 199.366 70.6716 198.865 69.8032 197.976C68.9348 197.086 68.4463 195.88 68.4448 194.622V49.7249C68.4463 48.4668 68.9348 47.2607 69.8032 46.371C70.6716 45.4814 71.8489 44.9809 73.077 44.9794H194.75C195.978 44.9809 197.156 45.4814 198.024 46.371C198.892 47.2607 199.381 48.4668 199.382 49.7249V194.622Z" fill="#9FA19E" fill-opacity="0.2"/>
<path d="M162.325 58.2667H105.502C104.766 58.2659 104.059 57.9656 103.538 57.4318C103.017 56.898 102.724 56.1743 102.723 55.4194V41.4992C102.724 40.7443 103.017 40.0205 103.538 39.4868C104.059 38.953 104.766 38.6527 105.502 38.6519H162.325C163.061 38.6527 163.768 38.953 164.289 39.4868C164.81 40.0205 165.103 40.7443 165.104 41.4992V55.4194C165.103 56.1743 164.81 56.898 164.289 57.4318C163.768 57.9656 163.061 58.2659 162.325 58.2667Z" fill="#007BFF" fill-opacity="0.7"/>
<path d="M133.914 39.601C137.325 39.601 140.09 36.7682 140.09 33.2737C140.09 29.7792 137.325 26.9463 133.914 26.9463C130.503 26.9463 127.737 29.7792 127.737 33.2737C127.737 36.7682 130.503 39.601 133.914 39.601Z" fill="#007BFF" fill-opacity="0.7"/>
<path d="M133.913 37.1278C135.991 37.1278 137.675 35.4024 137.675 33.2739C137.675 31.1454 135.991 29.4199 133.913 29.4199C131.836 29.4199 130.151 31.1454 130.151 33.2739C130.151 35.4024 131.836 37.1278 133.913 37.1278Z" fill="white"/>
</g>
<defs>
<clipPath id="clip0_3341_14608">
<rect width="200" height="200" fill="white"/>
</clipPath>
</defs>
</svg>
