<svg width="70" height="70" viewBox="0 0 70 70" fill="none" xmlns="http://www.w3.org/2000/svg">
<path fill-rule="evenodd" clip-rule="evenodd" d="M6.5625 35C6.5625 19.2937 19.2937 6.5625 35 6.5625C50.7063 6.5625 63.4375 19.2937 63.4375 35C63.4375 50.7063 50.7063 63.4375 35 63.4375C19.2937 63.4375 6.5625 50.7063 6.5625 35ZM35 24.0625C35.5802 24.0625 36.1366 24.293 36.5468 24.7032C36.957 25.1134 37.1875 25.6698 37.1875 26.25V37.1875C37.1875 37.7677 36.957 38.3241 36.5468 38.7343C36.1366 39.1445 35.5802 39.375 35 39.375C34.4198 39.375 33.8634 39.1445 33.4532 38.7343C33.043 38.3241 32.8125 37.7677 32.8125 37.1875V26.25C32.8125 25.6698 33.043 25.1134 33.4532 24.7032C33.8634 24.293 34.4198 24.0625 35 24.0625ZM35 48.125C35.5802 48.125 36.1366 47.8945 36.5468 47.4843C36.957 47.0741 37.1875 46.5177 37.1875 45.9375C37.1875 45.3573 36.957 44.8009 36.5468 44.3907C36.1366 43.9805 35.5802 43.75 35 43.75C34.4198 43.75 33.8634 43.9805 33.4532 44.3907C33.043 44.8009 32.8125 45.3573 32.8125 45.9375C32.8125 46.5177 33.043 47.0741 33.4532 47.4843C33.8634 47.8945 34.4198 48.125 35 48.125Z" fill="#E53935" fill-opacity="0.55"/>
</svg>
