<svg width="24" height="24" viewBox="0 0 24 24" fill="none" xmlns="http://www.w3.org/2000/svg">
<path d="M18 10.5V7.5C18 5.84315 16.6569 4.5 15 4.5" stroke="currentColor" stroke-width="1.5" stroke-linecap="round"/>
<path d="M10 20H7C5.34315 20 4 18.6569 4 17V7.5C4 5.84315 5.34315 4.5 7 4.5" stroke="currentColor" stroke-width="1.5" stroke-linecap="round"/>
<path d="M7 4.5C7 3.94772 7.44772 3.5 8 3.5H14C14.5523 3.5 15 3.94772 15 4.5V5.5C15 6.05228 14.5523 6.5 14 6.5H8C7.44772 6.5 7 6.05228 7 5.5V4.5Z" stroke="currentColor" stroke-width="1.5"/>
<path d="M8 11H13" stroke="currentColor" stroke-width="1.5" stroke-linecap="round"/>
<path d="M8 15H11" stroke="currentColor" stroke-width="1.5" stroke-linecap="round"/>
<path d="M19.7783 14.4141L19.0712 13.707C18.6807 13.3164 18.0475 13.3164 17.657 13.707L13.3537 18.0103C13.1661 18.1978 13.0608 18.4521 13.0608 18.7174L13.0608 20.1245C13.0608 20.2902 13.1951 20.4245 13.3608 20.4245H14.7679C15.0331 20.4245 15.2875 20.3191 15.475 20.1316L19.7783 15.8283C20.1688 15.4378 20.1688 14.8046 19.7783 14.4141Z" stroke="currentColor" stroke-width="1.5" stroke-linecap="round"/>
</svg>
