<svg width="57" height="57" viewBox="0 0 57 57" fill="none" xmlns="http://www.w3.org/2000/svg">
<path fill-rule="evenodd" clip-rule="evenodd" d="M0 28.4375C0 12.7312 12.7312 0 28.4375 0C44.1438 0 56.875 12.7312 56.875 28.4375C56.875 44.1438 44.1438 56.875 28.4375 56.875C12.7312 56.875 0 44.1438 0 28.4375ZM38.9667 23.1467C39.1417 22.9135 39.2683 22.6477 39.3391 22.3649C39.4099 22.082 39.4234 21.7879 39.3789 21.4998C39.3345 21.2117 39.2328 20.9353 39.08 20.687C38.9272 20.4387 38.7263 20.2235 38.4891 20.054C38.2519 19.8844 37.9832 19.764 37.6988 19.6998C37.4144 19.6356 37.1201 19.6289 36.8331 19.6801C36.546 19.7313 36.2721 19.8393 36.0275 19.9979C35.7828 20.1564 35.5723 20.3623 35.4083 20.6033L25.97 33.8158L21.2333 29.0792C20.8187 28.6928 20.2702 28.4824 19.7035 28.4924C19.1368 28.5024 18.5961 28.732 18.1953 29.1328C17.7945 29.5336 17.5649 30.0743 17.5549 30.641C17.5449 31.2077 17.7553 31.7562 18.1417 32.1708L24.7042 38.7333C24.9287 38.9577 25.1994 39.1305 25.4975 39.2398C25.7955 39.3491 26.1138 39.3921 26.4301 39.3661C26.7465 39.34 27.0534 39.2453 27.3295 39.0887C27.6057 38.9321 27.8444 38.7173 28.0292 38.4592L38.9667 23.1467Z" fill="#007BFF" fill-opacity="0.7"/>
</svg>
